<?xml version="1.0" encoding="utf-8"?>
<!-- Generator: Adobe Illustrator 23.0.1, SVG Export Plug-In . SVG Version: 6.00 Build 0)  -->
<svg version="1.1" id="Capa_1" xmlns="http://www.w3.org/2000/svg" xmlns:xlink="http://www.w3.org/1999/xlink" x="0px" y="0px"
	 viewBox="0 0 905.6 677.5" style="enable-background:new 0 0 905.6 677.5;" xml:space="preserve">
<style type="text/css">
	.st0{fill:#7386BD;}
	.st1{fill:none;stroke:#7386BD;stroke-width:2.8346;stroke-miterlimit:22.9256;}
	.st2{fill:#C12A24;}
	.st3{fill:none;stroke:#C12A24;stroke-width:2.8346;stroke-miterlimit:22.9256;}
	.st4{fill:#070308;}
	.st5{fill-rule:evenodd;clip-rule:evenodd;fill:#070308;}
	.st6{fill:none;stroke:#070308;stroke-width:0.216;stroke-miterlimit:22.9256;}
	.st7{fill-rule:evenodd;clip-rule:evenodd;fill:#EAE552;}
</style>
<g>
	<path class="st0" d="M866,418.7v-220c0-5-1.8-8.8-5.4-11.4c-3.2-2.6-7.2-4-11.9-4c-4.7,0-8.6,1.4-11.9,4c-3.2,2.6-4.9,6.5-4.9,11.4
		v166.8c-13.2,14.6-27.6,25.7-43.2,33.4c-16.4,8.5-33.7,12.8-51.8,12.8c-17.8,0-31.9-4.7-42.2-14.1c-9.6-8.5-14.4-18.8-14.4-30.8
		v-168c0-5-1.8-8.8-5.4-11.4c-3.2-2.6-7.1-4-11.4-4c-4.7,0-8.6,1.4-11.9,4c-3.2,2.6-4.9,6.5-4.9,11.4v168.1
		c0,18.5,7.5,34.4,22.4,47.6c16.8,14.6,39.3,22,67.5,22c20.3,0,39-3.8,56.1-11.6c14.7-6.2,27.7-14.6,39.1-25.4v19.3
		c0,4.1,1.6,7.5,4.9,10.1c3.3,2.3,7.2,3.5,11.9,3.5c4.7,0,8.7-1.2,11.9-3.5C864.2,426.2,866,422.8,866,418.7z"/>
	<path class="st1" d="M866,418.7v-220c0-5-1.8-8.8-5.4-11.4c-3.2-2.6-7.2-4-11.9-4c-4.7,0-8.6,1.4-11.9,4c-3.2,2.6-4.9,6.5-4.9,11.4
		v166.8c-13.2,14.6-27.6,25.7-43.2,33.4c-16.4,8.5-33.7,12.8-51.8,12.8c-17.8,0-31.9-4.7-42.2-14.1c-9.6-8.5-14.4-18.8-14.4-30.8
		v-168c0-5-1.8-8.8-5.4-11.4c-3.2-2.6-7.1-4-11.4-4c-4.7,0-8.6,1.4-11.9,4c-3.2,2.6-4.9,6.5-4.9,11.4v168.1
		c0,18.5,7.5,34.4,22.4,47.6c16.8,14.6,39.3,22,67.5,22c20.3,0,39-3.8,56.1-11.6c14.7-6.2,27.7-14.6,39.1-25.4v19.3
		c0,4.1,1.6,7.5,4.9,10.1c3.3,2.3,7.2,3.5,11.9,3.5c4.7,0,8.7-1.2,11.9-3.5C864.2,426.2,866,422.8,866,418.7z"/>
	<path class="st2" d="M612,113.2c0-4.7-1.8-8.3-5.4-11c-3.2-2.3-7.1-3.5-11.4-3.5c-4.7,0-8.6,1.1-11.9,3.1
		c-3.2,2.6-4.9,6.2-4.9,10.5v114.2c-11.1-13.7-24.3-23.9-39.6-30.3c-15-6.5-32.6-9.7-52.9-9.7c-41,0-72.9,12.9-95.7,38.7
		c-20.3,22.9-30.5,51.8-30.5,86.7c0,34.6,10.2,63.3,30.5,86.2c22.8,26.1,54.7,39.2,95.7,39.2c21.4,0,40.8-4,58.2-12
		c15-7.1,26.4-15.7,34.2-25.9v18.8c0,4.1,1.6,7.5,4.9,10.1c3.3,2.4,7.1,3.7,11.4,4c4.7,0,8.5-1.1,11.4-3.1c3.6-2.6,5.6-6.3,6-11
		V113.2z"/>
	<path class="st3" d="M612,113.2c0-4.7-1.8-8.3-5.4-11c-3.2-2.3-7.1-3.5-11.4-3.5c-4.7,0-8.6,1.1-11.9,3.1
		c-3.2,2.6-4.9,6.2-4.9,10.5v114.2c-11.1-13.7-24.3-23.9-39.6-30.3c-15-6.5-32.6-9.7-52.9-9.7c-41,0-72.9,12.9-95.7,38.7
		c-20.3,22.9-30.5,51.8-30.5,86.7c0,34.6,10.2,63.3,30.5,86.2c22.8,26.1,54.7,39.2,95.7,39.2c21.4,0,40.8-4,58.2-12
		c15-7.1,26.4-15.7,34.2-25.9v18.8c0,4.1,1.6,7.5,4.9,10.1c3.3,2.4,7.1,3.7,11.4,4c4.7,0,8.5-1.1,11.4-3.1c3.6-2.6,5.6-6.3,6-11
		V113.2z"/>
	<path class="st4" d="M366.3,484v70.6c0,1.3,0.5,2.4,1.6,3.3c1.1,0.8,2.3,1.1,3.8,1.1c1.4,0,2.6-0.4,3.7-1.1
		c1.2-0.8,1.7-1.9,1.7-3.3v-55.1c3.8-4.9,7.8-8.4,12.1-10.5c4.3-2.1,9.4-3.1,15.5-3.1c5.5,0,9.9,1.3,13.1,4c2.9,2.5,4.3,5.7,4.3,9.8
		v55c0,1.3,0.5,2.4,1.6,3.3c1.1,0.8,2.3,1.1,3.8,1.1c1.4,0,2.6-0.4,3.7-1.1c1.2-0.8,1.7-1.9,1.7-3.3v-53.9
		c3.3-5.3,7.1-9.1,11.2-11.3c4.1-2.4,9.5-3.6,16.1-3.6c5.7,0,10.2,1.3,13.3,4c2.9,2.5,4.3,5.7,4.3,9.8v55c0,1.3,0.5,2.4,1.6,3.3
		c1.1,0.8,2.3,1.1,3.8,1.1c1.4,0,2.6-0.4,3.7-1.1c1.2-0.8,1.7-1.9,1.7-3.3v-56.4c0-5.1-2.4-9.6-7.1-13.5c-5.4-4.5-12.7-6.7-21.7-6.7
		c-6.6,0-12.5,1.2-17.8,3.7c-4.9,2.2-8.8,5.2-11.8,9.1c-2.1-3.6-4.8-6.4-8.1-8.5c-4.7-2.8-10.7-4.3-17.8-4.3
		c-5.7,0-11.2,1.2-16.6,3.7c-4.4,2-8,4.5-10.7,7.5V484c0-1.6-0.6-2.8-1.7-3.7c-1-0.8-2.3-1.3-3.7-1.3c-1.5,0-2.8,0.4-3.8,1.3
		C366.8,481.2,366.3,482.4,366.3,484"/>
	<path class="st4" d="M541.9,478c-9.7,0-17.5,1.7-23.4,5.3c-6,3.7-9.7,9.2-11.1,16.5c-0.4,1.4,0,2.6,1,3.4c0.9,0.8,2.1,1.3,3.5,1.4
		c1.5,0.1,2.8-0.2,3.8-0.8c1.3-0.7,2-1.6,2.3-2.8c0.6-4.8,2.6-8.3,6.1-10.8c3.9-2.8,9.8-4.3,17.6-4.3c8.1,0,14.1,1.2,18.2,3.7
		c3.8,2.4,5.7,5.8,5.7,10.5c0,4.1-1.7,6.9-5.2,8.4c-3.6,1.6-11.5,3.1-23.9,4.5c-14,1.4-23.6,4.6-28.9,9.5c-3.6,3.4-5.4,8.3-5.4,14.5
		c0,6.9,2.6,12.3,7.8,16.1c5.3,4,13.2,6,23.6,6c7.6,0,14.4-1.1,20.4-3.3c4.4-1.6,8.3-3.8,11.8-6.5c0,2.9,1,5,3.1,6.3
		c2.5,1.3,7.1,2,13.7,2c1.6,0,2.9-0.4,3.8-1.3c0.8-0.8,1.2-1.7,1.2-2.7c-0.1-1.1-0.6-2.1-1.4-2.9c-0.9-0.8-2.1-1.1-3.5-1.1
		c-2.1,0-3.7-0.5-4.9-1.4c-1-0.8-1.6-2.1-1.6-3.7v-45c0-7.5-3.3-13-10.1-16.6C560.5,479.6,552.4,478,541.9,478 M565.6,538.3
		c-2.7,3.9-6.5,6.9-11.6,9.1c-5.7,2.4-12.5,3.7-20.4,3.7c-7,0-12.2-1.2-15.6-3.7c-3.2-2.3-4.8-5.7-4.8-10.4c0-4.8,1.7-8.5,5.2-10.9
		c3.6-2.7,9.7-4.5,18.3-5.4c8.7-0.9,15.4-2,20.4-3.3c4-1,6.9-2.1,8.5-3.3V538.3z"/>
	<path class="st4" d="M594.4,454.4v100.3c0,1.3,0.5,2.4,1.6,3.3c1.1,0.8,2.3,1.1,3.8,1.1c1.4,0,2.6-0.4,3.7-1.3
		c1.2-0.8,1.7-2,1.7-3.4v-25.7l16.7-13.5l33.3,41.9c1,1.1,2.4,1.8,4,2c1.4,0.1,2.7-0.2,4-1c1.2-0.7,1.9-1.6,2.1-2.8
		c0.2-1.2-0.2-2.5-1.2-3.7l-34.7-42.4l30-24.3c1.4-1,2.1-2.2,2.2-3.4c0-1-0.4-2-1.4-2.8c-1-0.8-2.2-1.2-3.6-1.3
		c-1.5,0-2.9,0.5-4.1,1.4L605.2,517v-62.7c0-1.5-0.6-2.7-1.7-3.5c-1-0.8-2.3-1.1-3.7-1.1c-1.5,0-2.8,0.4-3.8,1.1
		C595,451.7,594.4,452.8,594.4,454.4"/>
	<path class="st4" d="M678,449.7c-2.8,0-4.9,0.8-6.4,2.3c-1.4,1.4-2.1,3.2-2.1,5.3c0,2,0.7,3.7,2.1,5c1.5,1.5,3.6,2.3,6.4,2.3
		c2.7,0,4.8-0.8,6.5-2.3c1.5-1.4,2.2-3.1,2.2-5c0-2.1-0.7-3.9-2.2-5.3C682.8,450.4,680.6,449.7,678,449.7 M672.6,482v72.4
		c0,1.4,0.5,2.6,1.6,3.6c1.1,0.8,2.3,1.1,3.8,1.1c1.5,0,2.8-0.4,3.8-1.3c1.2-0.8,1.7-2,1.7-3.4V482c0-1.3-0.6-2.4-1.7-3.1
		c-1-0.7-2.3-1-3.8-1c-1.5,0-2.8,0.4-3.8,1.1C673.2,479.7,672.6,480.7,672.6,482z"/>
	<path class="st4" d="M701.3,483.8v70.6c0,1.5,0.5,2.7,1.6,3.5c1.1,0.8,2.3,1.3,3.8,1.3c1.4-0.1,2.6-0.5,3.7-1.3
		c1.2-0.9,1.7-2.2,1.7-3.7v-50.6c4-6.1,8.8-10.6,14.2-13.5c5.2-2.8,11-4.3,17.6-4.3c6,0,10.8,1.5,14.4,4.5c3.2,2.7,4.8,6,4.8,10.1
		v53.9c0,1.4,0.5,2.6,1.6,3.5c1.1,0.8,2.3,1.1,3.8,1.1c1.4,0,2.6-0.4,3.7-1.1c1.2-0.9,1.7-2.1,1.7-3.6v-53.9
		c0-6.2-2.5-11.3-7.6-15.5c-5.6-4.6-13-7-22.3-7c-7.2,0-13.6,1.3-19,3.9c-5.2,2.5-9.5,6-12.8,10.7v-8.8c0-1.4-0.6-2.5-1.7-3.4
		c-1-0.8-2.3-1.1-3.7-1.1c-1.5,0-2.8,0.4-3.8,1.1C701.9,481.2,701.3,482.3,701.3,483.8"/>
	<path class="st4" d="M827.9,485.9c9.7,0,17.3,3.3,22.8,9.9c4.8,5.8,7.2,13,7.2,21.4c0,8.9-2.4,16.2-7.2,21.8
		c-5.4,6.3-13,9.5-22.8,9.5c-9.9,0-17.5-3.2-22.8-9.5c-4.7-5.7-7.1-12.9-7.1-21.8c0-8.4,2.4-15.6,7.1-21.4
		C810.7,489.2,818.3,485.9,827.9,485.9 M858,483.5v7.5c-3.6-4.3-7.8-7.6-12.6-9.8c-5-2.1-10.7-3.2-17.3-3.2
		c-13.1,0-23.5,4.1-31,12.4c-6.6,7.4-9.9,16.4-9.9,27c0,11,3.3,20,9.9,27.1c7.4,8.1,17.7,12.1,31,12.1c7,0,13.4-1.3,19.1-3.8
		c4.9-2.3,8.5-5.1,10.9-8.4v8.4c0,4.4-2.4,8.2-7.3,11.2c-5.3,3.4-12.9,5.1-22.7,5.1c-7.8,0-14.1-1-18.9-3c-4.4-1.8-7.6-4.5-9.7-8
		c-0.8-1.1-1.9-1.8-3.3-2c-1.3-0.3-2.5-0.1-3.8,0.6c-1.4,0.6-2.2,1.4-2.6,2.4c-0.6,1.1-0.4,2.3,0.5,3.6c3.1,4.8,7.9,8.3,14.4,10.7
		c6.2,2.4,14,3.6,23.2,3.6c13.2,0,23.5-2.6,31.1-7.7c6.7-4.5,10.1-10,10.1-16.6v-69.2c0-1.3-0.6-2.4-1.7-3.1c-1-0.7-2.3-1-3.8-1
		c-1.5,0-2.8,0.3-3.8,1C858.6,481.1,858,482.1,858,483.5z"/>
	<path class="st5" d="M27.1,360.3v-61.5h217.6c-5.2-51.6-24.6-96.9-57.3-136c-40.9-47.9-94.4-71.9-160.3-71.9V30.4
		c95,0,171,32.1,227.6,96.2c51.6,58.9,77.3,131,77.3,216.2v17.5H27.1z M27.1,653.2v-61.5c53.2,0,97.8-12.7,133.3-38.2
		c27.5-19,51.8-47.5,73.2-85.4c5.2-11,13.6-18.6,25.2-22.9c10.7-3,21.8-2.6,33.2,1.1c10.7,3,18.2,8.4,22.7,16.4
		c5.2,9.5,5.2,19.8,0,30.6c-25.7,51.2-63,90.2-111.9,117.2C153.1,639,94.7,653.2,27.1,653.2z"/>
	<path class="st4" d="M367.9,605.8h4.9c1.1,0,2.2-0.3,3.2-0.9c1-0.6,1.7-1.3,2.2-2.1c0.5-0.9,0.7-1.7,0.7-2.6c0-1.4-0.5-2.7-1.5-3.8
		c-1-1.1-2.3-1.7-3.9-1.7h-5.4V605.8z M367.9,607.6v8.4h5.2c0.4,0,0.6,0.1,0.8,0.2c0.2,0.2,0.2,0.4,0.2,0.6c0,0.3-0.1,0.5-0.2,0.6
		c-0.2,0.2-0.4,0.3-0.8,0.3h-8.8c-0.4,0-0.6-0.1-0.8-0.3c-0.2-0.2-0.2-0.4-0.2-0.6c0-0.3,0.1-0.5,0.2-0.6c0.2-0.2,0.4-0.2,0.8-0.2h2
		v-21.2h-2c-0.4,0-0.6-0.1-0.8-0.2c-0.2-0.2-0.2-0.4-0.2-0.6s0.1-0.5,0.2-0.6c0.2-0.2,0.4-0.2,0.8-0.2h8.8c2.1,0,3.8,0.7,5.1,2.2
		c1.3,1.4,2,3.1,2,5.1c0,1.1-0.2,2.2-0.6,3.1c-0.4,0.9-0.9,1.6-1.5,2.2c-0.9,0.8-1.8,1.4-2.8,1.7c-0.7,0.3-1.6,0.4-2.6,0.4H367.9z"
		/>
	<path class="st4" d="M399.4,608.6c0-2.2-0.7-4.1-2-5.7c-1.4-1.6-3-2.3-5-2.3c-1.9,0-3.6,0.8-5,2.4c-1.4,1.6-2,3.5-2,5.7
		c0,2.2,0.7,4.1,2,5.7c1.4,1.6,3,2.4,5,2.4c1.9,0,3.6-0.8,5-2.4C398.7,612.7,399.4,610.8,399.4,608.6 M400.9,608.6
		c0,2.7-0.8,5-2.5,6.9c-1.7,1.9-3.7,2.9-6,2.9c-2.4,0-4.4-1-6.1-2.9c-1.7-1.9-2.5-4.2-2.5-6.9c0-2.7,0.8-5,2.5-6.9
		c1.7-1.9,3.7-2.9,6.1-2.9c2.3,0,4.4,1,6,2.9C400.1,603.6,400.9,605.9,400.9,608.6z"/>
	<path class="st4" d="M410.3,599.4h8.3c0.4,0,0.6,0.1,0.8,0.2c0.2,0.2,0.2,0.4,0.2,0.6c0,0.3-0.1,0.5-0.2,0.6
		c-0.2,0.2-0.4,0.3-0.8,0.3h-8.3V613c0,1,0.4,1.9,1.1,2.6c0.7,0.7,1.7,1,3.1,1c1,0,2.1-0.2,3.3-0.5c1.2-0.4,2.1-0.8,2.8-1.2
		c0.2-0.2,0.4-0.3,0.6-0.3c0.2,0,0.4,0.1,0.5,0.3c0.1,0.2,0.2,0.4,0.2,0.6c0,0.2-0.1,0.4-0.2,0.6c-0.4,0.5-1.3,1-2.8,1.5
		c-1.5,0.5-2.9,0.8-4.3,0.8c-1.8,0-3.2-0.5-4.2-1.5c-1.1-1-1.6-2.3-1.6-3.9v-11.8H406c-0.4,0-0.6-0.1-0.8-0.3
		c-0.2-0.2-0.2-0.4-0.2-0.6c0-0.3,0.1-0.5,0.2-0.6c0.2-0.2,0.4-0.3,0.8-0.3h2.8v-5.3c0-0.4,0.1-0.7,0.2-0.9c0.1-0.2,0.3-0.3,0.5-0.3
		c0.2,0,0.4,0.1,0.6,0.3c0.1,0.2,0.2,0.5,0.2,0.9V599.4z"/>
	<path class="st4" d="M441.3,607.2c-0.3-2-1.1-3.6-2.4-4.8c-1.3-1.2-2.8-1.9-4.6-1.9c-1.8,0-3.3,0.6-4.6,1.8
		c-1.3,1.2-2.1,2.8-2.4,4.8H441.3z M442.9,609h-15.6c0.3,2.3,1.1,4.1,2.5,5.5c1.4,1.4,3.1,2.1,5.1,2.1c1.1,0,2.3-0.2,3.6-0.7
		c1.2-0.4,2.3-1,3-1.7c0.2-0.2,0.4-0.3,0.6-0.3c0.2,0,0.4,0.1,0.5,0.3c0.1,0.2,0.2,0.4,0.2,0.6c0,0.2-0.1,0.5-0.3,0.7
		c-0.6,0.7-1.6,1.4-3.1,2c-1.5,0.6-3,0.9-4.6,0.9c-2.6,0-4.8-1-6.5-3c-1.7-2-2.6-4.4-2.6-7.2c0-2.6,0.8-4.8,2.5-6.6
		c1.6-1.8,3.7-2.8,6.1-2.8c2.5,0,4.5,0.9,6.2,2.8C442.1,603.5,442.9,606,442.9,609z"/>
	<path class="st4" d="M450.8,599.4v2.7c1.1-1.3,2-2.1,2.9-2.6c0.9-0.5,1.8-0.7,2.9-0.7c1.2,0,2.2,0.3,3.2,0.9
		c0.7,0.4,1.3,1.1,1.8,2.1c0.6,1,0.8,2,0.8,3V616h1.3c0.4,0,0.6,0.1,0.8,0.2c0.2,0.2,0.2,0.4,0.2,0.6c0,0.3-0.1,0.5-0.2,0.6
		c-0.2,0.2-0.4,0.3-0.8,0.3h-4.1c-0.4,0-0.6-0.1-0.8-0.3c-0.2-0.2-0.2-0.4-0.2-0.6c0-0.3,0.1-0.5,0.2-0.6c0.2-0.2,0.4-0.2,0.8-0.2
		h1.3v-10.9c0-1.3-0.4-2.3-1.2-3.2c-0.8-0.9-1.8-1.3-3.2-1.3c-1,0-1.9,0.2-2.6,0.7c-0.7,0.5-1.8,1.7-3.2,3.5V616h1.7
		c0.4,0,0.6,0.1,0.8,0.2c0.2,0.2,0.2,0.4,0.2,0.6c0,0.3-0.1,0.5-0.2,0.6c-0.2,0.2-0.4,0.3-0.8,0.3h-4.9c-0.4,0-0.6-0.1-0.8-0.3
		c-0.2-0.2-0.2-0.4-0.2-0.6c0-0.3,0.1-0.5,0.2-0.6c0.2-0.2,0.4-0.2,0.8-0.2h1.7v-14.8H448c-0.4,0-0.6-0.1-0.8-0.2
		c-0.2-0.2-0.2-0.4-0.2-0.6c0-0.3,0.1-0.5,0.2-0.6c0.2-0.2,0.4-0.3,0.8-0.3H450.8z"/>
	<path class="st4" d="M483.3,601.2v-0.6c0-0.4,0.1-0.7,0.2-0.9c0.1-0.2,0.3-0.3,0.5-0.3c0.2,0,0.4,0.1,0.6,0.3
		c0.1,0.2,0.2,0.5,0.2,0.9v4c0,0.4-0.1,0.8-0.2,0.9c-0.1,0.2-0.3,0.3-0.5,0.3c-0.2,0-0.4-0.1-0.5-0.2c-0.1-0.2-0.2-0.4-0.2-0.8
		c-0.1-1-0.6-1.9-1.7-2.8c-1.1-0.9-2.5-1.4-4.3-1.4c-2.3,0-4,0.8-5.2,2.5c-1.2,1.6-1.8,3.5-1.8,5.7c0,2.3,0.6,4.2,1.9,5.7
		c1.3,1.5,3,2.2,5,2.2c1.2,0,2.4-0.3,3.6-0.8c1.2-0.5,2.3-1.3,3.3-2.5c0.2-0.3,0.5-0.4,0.7-0.4c0.2,0,0.4,0.1,0.5,0.2
		c0.1,0.2,0.2,0.4,0.2,0.6c0,0.6-0.6,1.4-1.8,2.3c-2,1.5-4.2,2.3-6.6,2.3c-2.5,0-4.5-0.9-6.1-2.7c-1.6-1.8-2.4-4.1-2.4-6.9
		c0-2.9,0.8-5.2,2.4-7.1c1.6-1.9,3.7-2.8,6.1-2.8C479.7,598.8,481.7,599.6,483.3,601.2"/>
	<path class="st4" d="M498.8,599.4V616h6c0.4,0,0.6,0.1,0.8,0.2c0.2,0.2,0.2,0.4,0.2,0.6c0,0.3-0.1,0.5-0.2,0.6
		c-0.2,0.2-0.4,0.3-0.8,0.3h-13.5c-0.4,0-0.6-0.1-0.8-0.3c-0.2-0.2-0.2-0.4-0.2-0.6c0-0.3,0.1-0.5,0.2-0.6c0.2-0.2,0.4-0.2,0.8-0.2
		h6v-14.8h-4.4c-0.4,0-0.6-0.1-0.8-0.3c-0.2-0.2-0.2-0.4-0.2-0.6c0-0.3,0.1-0.5,0.2-0.6c0.2-0.2,0.4-0.3,0.8-0.3H498.8z
		 M498.8,590.3v4.6h-2.3v-4.6H498.8z"/>
	<path class="st4" d="M523.5,608.9c-0.7-0.2-1.5-0.4-2.3-0.5c-0.8-0.1-1.6-0.2-2.5-0.2c-2.2,0-4,0.6-5.2,1.7c-0.9,0.8-1.4,1.8-1.4,3
		c0,1.1,0.4,2,1.1,2.7c0.7,0.7,1.8,1.1,3.2,1.1c1.3,0,2.6-0.3,3.7-0.9c1.1-0.6,2.3-1.6,3.5-2.9V608.9z M523.5,617.7v-2.6
		c-2.2,2.2-4.6,3.3-7.1,3.3c-1.8,0-3.3-0.5-4.3-1.6c-1-1.1-1.6-2.4-1.6-4c0-1.7,0.7-3.2,2-4.5c1.4-1.3,3.4-1.9,6-1.9
		c0.7,0,1.5,0,2.3,0.2c0.8,0.1,1.7,0.3,2.7,0.5v-2.9c0-1-0.4-1.8-1.2-2.5c-0.8-0.7-1.9-1.1-3.5-1.1c-1.2,0-2.9,0.4-5,1.2
		c-0.4,0.1-0.6,0.2-0.8,0.2c-0.2,0-0.4-0.1-0.5-0.3c-0.1-0.2-0.2-0.4-0.2-0.6c0-0.2,0.1-0.4,0.2-0.6c0.2-0.2,0.9-0.5,2.1-0.9
		c1.9-0.6,3.3-0.9,4.3-0.9c1.9,0,3.4,0.6,4.5,1.7c1.1,1.1,1.6,2.4,1.6,3.7V616h2c0.4,0,0.6,0.1,0.8,0.2c0.2,0.2,0.2,0.4,0.2,0.6
		c0,0.3-0.1,0.5-0.2,0.6c-0.2,0.2-0.4,0.3-0.8,0.3H523.5z"/>
	<path class="st4" d="M559.4,599.4h8.3c0.4,0,0.6,0.1,0.8,0.2c0.2,0.2,0.2,0.4,0.2,0.6c0,0.3-0.1,0.5-0.2,0.6
		c-0.2,0.2-0.4,0.3-0.8,0.3h-8.3V613c0,1,0.4,1.9,1.1,2.6c0.7,0.7,1.7,1,3.1,1c1,0,2.1-0.2,3.3-0.5c1.2-0.4,2.1-0.8,2.8-1.2
		c0.2-0.2,0.4-0.3,0.6-0.3c0.2,0,0.4,0.1,0.5,0.3c0.1,0.2,0.2,0.4,0.2,0.6c0,0.2-0.1,0.4-0.2,0.6c-0.4,0.5-1.3,1-2.8,1.5
		c-1.5,0.5-2.9,0.8-4.3,0.8c-1.8,0-3.2-0.5-4.2-1.5c-1.1-1-1.6-2.3-1.6-3.9v-11.8H555c-0.4,0-0.6-0.1-0.8-0.3
		c-0.2-0.2-0.2-0.4-0.2-0.6c0-0.3,0.1-0.5,0.2-0.6c0.2-0.2,0.4-0.3,0.8-0.3h2.8v-5.3c0-0.4,0.1-0.7,0.2-0.9c0.1-0.2,0.3-0.3,0.5-0.3
		c0.2,0,0.4,0.1,0.6,0.3c0.1,0.2,0.2,0.5,0.2,0.9V599.4z"/>
	<path class="st4" d="M588.8,617.7v-2.6c-2.1,2.2-4.3,3.3-6.7,3.3c-1.5,0-2.6-0.5-3.4-1.4c-1-1.2-1.5-2.7-1.5-4.3v-11.5h-2
		c-0.4,0-0.6-0.1-0.8-0.2c-0.2-0.2-0.2-0.4-0.2-0.6c0-0.3,0.1-0.5,0.2-0.6c0.2-0.2,0.4-0.3,0.8-0.3h3.6v13.3c0,1.2,0.3,2.1,0.9,2.9
		c0.6,0.7,1.4,1.1,2.3,1.1c2.5,0,4.7-1.3,6.8-4v-11.5h-2.8c-0.4,0-0.6-0.1-0.8-0.2c-0.2-0.2-0.2-0.4-0.2-0.6c0-0.3,0.1-0.5,0.2-0.6
		c0.2-0.2,0.4-0.3,0.8-0.3h4.3V616h1.3c0.4,0,0.6,0.1,0.8,0.2c0.2,0.2,0.2,0.4,0.2,0.6c0,0.3-0.1,0.5-0.2,0.6
		c-0.2,0.2-0.4,0.3-0.8,0.3H588.8z"/>
	<path class="st4" d="M609.9,600.6c0-0.4,0.1-0.7,0.2-0.9c0.1-0.2,0.3-0.3,0.5-0.3c0.2,0,0.4,0.1,0.6,0.3c0.1,0.2,0.2,0.5,0.2,0.9v3
		c0,0.4-0.1,0.7-0.2,0.9c-0.1,0.2-0.3,0.3-0.6,0.3c-0.2,0-0.4-0.1-0.5-0.2c-0.1-0.2-0.2-0.4-0.2-0.8c-0.1-0.8-0.4-1.5-1.1-2.1
		c-1-0.8-2.3-1.2-3.9-1.2c-1.7,0-3,0.4-4,1.2c-0.7,0.6-1.1,1.3-1.1,2c0,0.8,0.4,1.6,1.3,2.1c0.6,0.4,1.7,0.7,3.3,0.9
		c2.1,0.3,3.6,0.6,4.4,0.9c1.2,0.5,2,1.2,2.6,2c0.6,0.9,0.9,1.8,0.9,2.8c0,1.5-0.6,2.8-1.9,4c-1.3,1.2-3.1,1.8-5.5,1.8
		c-2.4,0-4.4-0.7-5.9-2.1c0,0.5,0,0.8-0.1,0.9c0,0.1-0.1,0.3-0.2,0.4c-0.1,0.1-0.3,0.2-0.4,0.2c-0.2,0-0.4-0.1-0.6-0.3
		c-0.1-0.2-0.2-0.5-0.2-0.9v-3.7c0-0.4,0.1-0.7,0.2-0.9c0.1-0.2,0.3-0.3,0.6-0.3c0.2,0,0.4,0.1,0.5,0.3c0.1,0.2,0.2,0.4,0.2,0.7
		c0,0.7,0.1,1.2,0.4,1.6c0.4,0.7,1.1,1.2,2,1.7c0.9,0.4,2.1,0.7,3.4,0.7c2,0,3.5-0.4,4.4-1.3c1-0.9,1.5-1.8,1.5-2.7
		c0-1.1-0.5-2-1.5-2.6c-1-0.7-2.4-1.1-4.3-1.3c-1.9-0.2-3.3-0.5-4.1-0.9c-0.8-0.4-1.5-0.9-1.9-1.6c-0.5-0.7-0.7-1.5-0.7-2.4
		c0-1.5,0.6-2.7,1.9-3.6c1.3-0.9,2.8-1.3,4.6-1.3C606.8,598.8,608.5,599.4,609.9,600.6"/>
	<path class="st4" d="M654.9,595.4v-1.2c0-0.4,0.1-0.7,0.2-0.9c0.1-0.2,0.3-0.3,0.6-0.3c0.2,0,0.4,0.1,0.5,0.3
		c0.1,0.2,0.2,0.5,0.2,0.9v4.9c0,0.4-0.1,0.7-0.2,0.9c-0.1,0.2-0.3,0.3-0.5,0.3c-0.2,0-0.4-0.1-0.5-0.3c-0.1-0.2-0.2-0.4-0.2-0.8
		c-0.1-1.2-0.6-2.2-1.6-3.1c-1.4-1.2-3-1.9-4.8-1.9c-1.2,0-2.3,0.3-3.3,0.9c-0.8,0.4-1.4,1-1.9,1.6c-0.8,1.1-1.4,2.3-1.9,3.7
		c-0.3,1-0.5,2.1-0.5,3.3v3.1c0,2.7,0.8,4.9,2.5,6.9c1.6,2,3.6,2.9,5.7,2.9c1.3,0,2.5-0.3,3.5-1c1-0.7,2-1.7,3-3
		c0.2-0.3,0.4-0.4,0.7-0.4c0.2,0,0.4,0.1,0.5,0.2c0.1,0.2,0.2,0.4,0.2,0.6c0,0.3-0.3,0.8-0.8,1.5c-1,1.3-2.1,2.3-3.3,2.9
		c-1.2,0.7-2.5,1-3.8,1c-1.1,0-2.2-0.2-3.4-0.7c-0.9-0.4-1.6-0.8-2.2-1.3c-0.6-0.5-1.3-1.4-2.1-2.6c-0.8-1.2-1.4-2.3-1.7-3.3
		c-0.3-1-0.5-2.1-0.5-3.4v-3.6c0-1.7,0.4-3.5,1.2-5.4c0.8-1.8,1.9-3.2,3.3-4.2c1.4-1,2.9-1.5,4.5-1.5
		C651,592.4,653.1,593.4,654.9,595.4"/>
	<path class="st4" d="M673.8,608.9c-0.7-0.2-1.5-0.4-2.3-0.5c-0.8-0.1-1.6-0.2-2.5-0.2c-2.2,0-4,0.6-5.2,1.7c-0.9,0.8-1.4,1.8-1.4,3
		c0,1.1,0.4,2,1.1,2.7c0.7,0.7,1.8,1.1,3.2,1.1c1.3,0,2.6-0.3,3.7-0.9c1.1-0.6,2.3-1.6,3.5-2.9V608.9z M673.8,617.7v-2.6
		c-2.2,2.2-4.6,3.3-7.1,3.3c-1.8,0-3.3-0.5-4.3-1.6c-1-1.1-1.6-2.4-1.6-4c0-1.7,0.7-3.2,2-4.5c1.4-1.3,3.4-1.9,6-1.9
		c0.7,0,1.5,0,2.3,0.2c0.8,0.1,1.7,0.3,2.7,0.5v-2.9c0-1-0.4-1.8-1.2-2.5c-0.8-0.7-1.9-1.1-3.5-1.1c-1.2,0-2.9,0.4-5,1.2
		c-0.4,0.1-0.6,0.2-0.8,0.2c-0.2,0-0.4-0.1-0.5-0.3c-0.1-0.2-0.2-0.4-0.2-0.6c0-0.2,0.1-0.4,0.2-0.6c0.2-0.2,0.9-0.5,2.1-0.9
		c1.9-0.6,3.3-0.9,4.3-0.9c1.9,0,3.4,0.6,4.5,1.7c1.1,1.1,1.6,2.4,1.6,3.7V616h2c0.4,0,0.6,0.1,0.8,0.2c0.2,0.2,0.2,0.4,0.2,0.6
		c0,0.3-0.1,0.5-0.2,0.6c-0.2,0.2-0.4,0.3-0.8,0.3H673.8z"/>
	<path class="st4" d="M698,608c0-2-0.6-3.8-1.9-5.3c-1.3-1.5-2.8-2.2-4.7-2.2c-1.9,0-3.4,0.7-4.7,2.2c-1.3,1.5-1.9,3.2-1.9,5.3
		c0,2.1,0.6,3.8,1.9,5.3c1.3,1.5,2.8,2.2,4.7,2.2c1.8,0,3.4-0.7,4.7-2.2C697.3,611.9,698,610.1,698,608 M684.8,599.4v3.3
		c0.9-1.3,1.9-2.2,2.9-2.9c1-0.6,2.3-1,3.7-1c1.5,0,2.9,0.4,4.1,1.2c1.3,0.8,2.3,2,2.9,3.4c0.7,1.5,1,3,1,4.6c0,2.6-0.8,4.7-2.3,6.6
		c-1.6,1.8-3.5,2.7-5.8,2.7c-2.7,0-4.9-1.3-6.6-3.9v10.7h3.6c0.4,0,0.6,0.1,0.8,0.2c0.2,0.2,0.2,0.4,0.2,0.6c0,0.3-0.1,0.5-0.2,0.6
		c-0.2,0.2-0.4,0.3-0.8,0.3h-7.2c-0.4,0-0.6-0.1-0.8-0.2c-0.2-0.2-0.2-0.4-0.2-0.6c0-0.3,0.1-0.5,0.2-0.6c0.2-0.2,0.4-0.2,0.8-0.2h2
		v-22.9h-2c-0.4,0-0.6-0.1-0.8-0.2c-0.2-0.2-0.2-0.4-0.2-0.6c0-0.3,0.1-0.5,0.2-0.6c0.2-0.2,0.4-0.3,0.8-0.3H684.8z"/>
	<path class="st4" d="M716,608.9c-0.7-0.2-1.5-0.4-2.3-0.5c-0.8-0.1-1.6-0.2-2.5-0.2c-2.2,0-4,0.6-5.2,1.7c-0.9,0.8-1.4,1.8-1.4,3
		c0,1.1,0.4,2,1.1,2.7c0.7,0.7,1.8,1.1,3.2,1.1c1.3,0,2.6-0.3,3.7-0.9c1.1-0.6,2.3-1.6,3.5-2.9V608.9z M716,617.7v-2.6
		c-2.2,2.2-4.6,3.3-7.1,3.3c-1.8,0-3.3-0.5-4.3-1.6c-1-1.1-1.6-2.4-1.6-4c0-1.7,0.7-3.2,2-4.5c1.4-1.3,3.4-1.9,6-1.9
		c0.7,0,1.5,0,2.3,0.2c0.8,0.1,1.7,0.3,2.7,0.5v-2.9c0-1-0.4-1.8-1.2-2.5c-0.8-0.7-1.9-1.1-3.5-1.1c-1.2,0-2.9,0.4-5,1.2
		c-0.4,0.1-0.6,0.2-0.8,0.2c-0.2,0-0.4-0.1-0.5-0.3c-0.1-0.2-0.2-0.4-0.2-0.6c0-0.2,0.1-0.4,0.2-0.6c0.2-0.2,0.9-0.5,2.1-0.9
		c1.9-0.6,3.3-0.9,4.3-0.9c1.9,0,3.4,0.6,4.5,1.7c1.1,1.1,1.6,2.4,1.6,3.7V616h2c0.4,0,0.6,0.1,0.8,0.2c0.2,0.2,0.2,0.4,0.2,0.6
		c0,0.3-0.1,0.5-0.2,0.6c-0.2,0.2-0.4,0.3-0.8,0.3H716z"/>
	<path class="st4" d="M739.1,601.2v-0.6c0-0.4,0.1-0.7,0.2-0.9c0.1-0.2,0.3-0.3,0.5-0.3c0.2,0,0.4,0.1,0.6,0.3
		c0.1,0.2,0.2,0.5,0.2,0.9v4c0,0.4-0.1,0.8-0.2,0.9c-0.1,0.2-0.3,0.3-0.5,0.3c-0.2,0-0.4-0.1-0.5-0.2c-0.1-0.2-0.2-0.4-0.2-0.8
		c-0.1-1-0.6-1.9-1.7-2.8c-1.1-0.9-2.5-1.4-4.3-1.4c-2.3,0-4,0.8-5.2,2.5c-1.2,1.6-1.8,3.5-1.8,5.7c0,2.3,0.6,4.2,1.9,5.7
		c1.3,1.5,3,2.2,5,2.2c1.2,0,2.4-0.3,3.6-0.8c1.2-0.5,2.3-1.3,3.3-2.5c0.2-0.3,0.5-0.4,0.7-0.4c0.2,0,0.4,0.1,0.5,0.2
		c0.1,0.2,0.2,0.4,0.2,0.6c0,0.6-0.6,1.4-1.8,2.3c-2,1.5-4.2,2.3-6.6,2.3c-2.5,0-4.5-0.9-6.1-2.7c-1.6-1.8-2.4-4.1-2.4-6.9
		c0-2.9,0.8-5.2,2.4-7.1c1.6-1.9,3.7-2.8,6.1-2.8C735.6,598.8,737.5,599.6,739.1,601.2"/>
	<path class="st4" d="M754.7,599.4V616h6c0.4,0,0.6,0.1,0.8,0.2c0.2,0.2,0.2,0.4,0.2,0.6c0,0.3-0.1,0.5-0.2,0.6
		c-0.2,0.2-0.4,0.3-0.8,0.3h-13.5c-0.4,0-0.6-0.1-0.8-0.3c-0.2-0.2-0.2-0.4-0.2-0.6c0-0.3,0.1-0.5,0.2-0.6c0.2-0.2,0.4-0.2,0.8-0.2
		h6v-14.8h-4.4c-0.4,0-0.6-0.1-0.8-0.3c-0.2-0.2-0.2-0.4-0.2-0.6c0-0.3,0.1-0.5,0.2-0.6c0.2-0.2,0.4-0.3,0.8-0.3H754.7z
		 M754.6,590.3v4.6h-2.3v-4.6H754.6z"/>
	<path class="st4" d="M780.9,608.6c0-2.3-0.7-4.2-2-5.7c-1.3-1.6-2.9-2.3-4.7-2.3c-1.8,0-3.4,0.8-4.7,2.3c-1.3,1.6-2,3.5-2,5.7
		c0,2.2,0.7,4.1,2,5.7c1.3,1.6,2.9,2.3,4.7,2.3c1.8,0,3.4-0.8,4.7-2.3C780.3,612.8,780.9,610.9,780.9,608.6 M782.5,591.2V616h2
		c0.4,0,0.6,0.1,0.8,0.2c0.2,0.2,0.2,0.4,0.2,0.6c0,0.3-0.1,0.5-0.2,0.6c-0.2,0.2-0.4,0.3-0.8,0.3h-3.6v-3.5c-1.8,2.8-4,4.2-6.7,4.2
		c-1.4,0-2.7-0.4-4-1.3c-1.3-0.9-2.3-2.1-3-3.6c-0.7-1.6-1.1-3.2-1.1-4.9c0-1.7,0.4-3.3,1.1-4.9c0.7-1.6,1.7-2.8,3-3.6
		c1.3-0.9,2.6-1.3,4-1.3c2.7,0,4.9,1.4,6.7,4.2v-10.1h-2c-0.4,0-0.6-0.1-0.8-0.2c-0.2-0.2-0.2-0.4-0.2-0.6c0-0.3,0.1-0.5,0.2-0.6
		c0.2-0.2,0.4-0.3,0.8-0.3H782.5z"/>
	<path class="st4" d="M800.5,608.9c-0.7-0.2-1.5-0.4-2.3-0.5c-0.8-0.1-1.6-0.2-2.5-0.2c-2.2,0-4,0.6-5.2,1.7c-0.9,0.8-1.4,1.8-1.4,3
		c0,1.1,0.4,2,1.1,2.7c0.7,0.7,1.8,1.1,3.2,1.1c1.3,0,2.6-0.3,3.7-0.9c1.1-0.6,2.3-1.6,3.5-2.9V608.9z M800.5,617.7v-2.6
		c-2.2,2.2-4.6,3.3-7.1,3.3c-1.8,0-3.3-0.5-4.3-1.6c-1-1.1-1.6-2.4-1.6-4c0-1.7,0.7-3.2,2-4.5c1.4-1.3,3.4-1.9,6-1.9
		c0.7,0,1.5,0,2.3,0.2c0.8,0.1,1.7,0.3,2.7,0.5v-2.9c0-1-0.4-1.8-1.2-2.5c-0.8-0.7-1.9-1.1-3.5-1.1c-1.2,0-2.9,0.4-5,1.2
		c-0.4,0.1-0.6,0.2-0.8,0.2c-0.2,0-0.4-0.1-0.5-0.3c-0.1-0.2-0.2-0.4-0.2-0.6c0-0.2,0.1-0.4,0.2-0.6c0.2-0.2,0.9-0.5,2.1-0.9
		c1.9-0.6,3.3-0.9,4.3-0.9c1.9,0,3.4,0.6,4.5,1.7c1.1,1.1,1.6,2.4,1.6,3.7V616h2c0.4,0,0.6,0.1,0.8,0.2c0.2,0.2,0.2,0.4,0.2,0.6
		c0,0.3-0.1,0.5-0.2,0.6c-0.2,0.2-0.4,0.3-0.8,0.3H800.5z"/>
	<path class="st4" d="M823.2,608.6c0-2.3-0.7-4.2-2-5.7c-1.3-1.6-2.9-2.3-4.7-2.3c-1.8,0-3.4,0.8-4.7,2.3c-1.3,1.6-2,3.5-2,5.7
		c0,2.2,0.6,4.1,2,5.7c1.3,1.6,2.9,2.3,4.7,2.3c1.8,0,3.4-0.8,4.7-2.3C822.5,612.8,823.2,610.9,823.2,608.6 M824.7,591.2V616h2
		c0.4,0,0.6,0.1,0.8,0.2c0.2,0.2,0.2,0.4,0.2,0.6c0,0.3-0.1,0.5-0.2,0.6c-0.2,0.2-0.4,0.3-0.8,0.3h-3.6v-3.5c-1.8,2.8-4,4.2-6.7,4.2
		c-1.4,0-2.7-0.4-4-1.3c-1.3-0.9-2.3-2.1-3-3.6c-0.7-1.6-1.1-3.2-1.1-4.9c0-1.7,0.4-3.3,1.1-4.9c0.7-1.6,1.7-2.8,3-3.6
		c1.3-0.9,2.6-1.3,4-1.3c2.7,0,4.9,1.4,6.7,4.2v-10.1h-2c-0.4,0-0.6-0.1-0.8-0.2c-0.2-0.2-0.2-0.4-0.2-0.6c0-0.3,0.1-0.5,0.2-0.6
		c0.2-0.2,0.4-0.3,0.8-0.3H824.7z"/>
	<path class="st4" d="M845.1,607.2c-0.3-2-1.1-3.6-2.4-4.8c-1.3-1.2-2.8-1.9-4.6-1.9c-1.8,0-3.3,0.6-4.6,1.8
		c-1.3,1.2-2.1,2.8-2.4,4.8H845.1z M846.6,609h-15.6c0.3,2.3,1.1,4.1,2.5,5.5c1.4,1.4,3.1,2.1,5.1,2.1c1.1,0,2.3-0.2,3.6-0.7
		c1.2-0.4,2.3-1,3-1.7c0.2-0.2,0.4-0.3,0.6-0.3c0.2,0,0.4,0.1,0.5,0.3c0.1,0.2,0.2,0.4,0.2,0.6c0,0.2-0.1,0.5-0.3,0.7
		c-0.6,0.7-1.6,1.4-3.1,2c-1.5,0.6-3,0.9-4.6,0.9c-2.6,0-4.8-1-6.5-3c-1.7-2-2.6-4.4-2.6-7.2c0-2.6,0.8-4.8,2.5-6.6
		c1.6-1.8,3.7-2.8,6.1-2.8c2.5,0,4.5,0.9,6.2,2.8C845.8,603.5,846.6,606,846.6,609z"/>
	<path class="st4" d="M864.5,600.6c0-0.4,0.1-0.7,0.2-0.9c0.1-0.2,0.3-0.3,0.5-0.3c0.2,0,0.4,0.1,0.6,0.3c0.1,0.2,0.2,0.5,0.2,0.9v3
		c0,0.4-0.1,0.7-0.2,0.9c-0.1,0.2-0.3,0.3-0.6,0.3c-0.2,0-0.4-0.1-0.5-0.2c-0.1-0.2-0.2-0.4-0.2-0.8c-0.1-0.8-0.4-1.5-1.1-2.1
		c-1-0.8-2.3-1.2-3.9-1.2c-1.7,0-3,0.4-4,1.2c-0.7,0.6-1.1,1.3-1.1,2c0,0.8,0.4,1.6,1.3,2.1c0.6,0.4,1.7,0.7,3.3,0.9
		c2.1,0.3,3.6,0.6,4.4,0.9c1.2,0.5,2,1.2,2.6,2c0.6,0.9,0.9,1.8,0.9,2.8c0,1.5-0.6,2.8-1.9,4c-1.3,1.2-3.1,1.8-5.5,1.8
		c-2.4,0-4.4-0.7-5.9-2.1c0,0.5,0,0.8-0.1,0.9c0,0.1-0.1,0.3-0.2,0.4c-0.1,0.1-0.3,0.2-0.4,0.2c-0.2,0-0.4-0.1-0.6-0.3
		c-0.1-0.2-0.2-0.5-0.2-0.9v-3.7c0-0.4,0.1-0.7,0.2-0.9c0.1-0.2,0.3-0.3,0.6-0.3c0.2,0,0.4,0.1,0.5,0.3c0.1,0.2,0.2,0.4,0.2,0.7
		c0,0.7,0.1,1.2,0.4,1.6c0.4,0.7,1.1,1.2,2,1.7c0.9,0.4,2.1,0.7,3.4,0.7c2,0,3.5-0.4,4.4-1.3c1-0.9,1.5-1.8,1.5-2.7
		c0-1.1-0.5-2-1.5-2.6c-1-0.7-2.4-1.1-4.3-1.3c-1.9-0.2-3.3-0.5-4.1-0.9c-0.8-0.4-1.5-0.9-1.9-1.6c-0.5-0.7-0.7-1.5-0.7-2.4
		c0-1.5,0.6-2.7,1.9-3.6c1.3-0.9,2.8-1.3,4.6-1.3C861.5,598.8,863.2,599.4,864.5,600.6"/>
	<path class="st6" d="M367.9,605.8h4.9c1.1,0,2.2-0.3,3.2-0.9c1-0.6,1.7-1.3,2.2-2.1c0.5-0.9,0.7-1.7,0.7-2.6c0-1.4-0.5-2.7-1.5-3.8
		c-1-1.1-2.3-1.7-3.9-1.7h-5.4V605.8z M367.9,607.6v8.4h5.2c0.4,0,0.6,0.1,0.8,0.2c0.2,0.2,0.2,0.4,0.2,0.6c0,0.3-0.1,0.5-0.2,0.6
		c-0.2,0.2-0.4,0.3-0.8,0.3h-8.8c-0.4,0-0.6-0.1-0.8-0.3c-0.2-0.2-0.2-0.4-0.2-0.6c0-0.3,0.1-0.5,0.2-0.6c0.2-0.2,0.4-0.2,0.8-0.2h2
		v-21.2h-2c-0.4,0-0.6-0.1-0.8-0.2c-0.2-0.2-0.2-0.4-0.2-0.6s0.1-0.5,0.2-0.6c0.2-0.2,0.4-0.2,0.8-0.2h8.8c2.1,0,3.8,0.7,5.1,2.2
		c1.3,1.4,2,3.1,2,5.1c0,1.1-0.2,2.2-0.6,3.1c-0.4,0.9-0.9,1.6-1.5,2.2c-0.9,0.8-1.8,1.4-2.8,1.7c-0.7,0.3-1.6,0.4-2.6,0.4H367.9z"
		/>
	<path class="st6" d="M399.4,608.6c0-2.2-0.7-4.1-2-5.7c-1.4-1.6-3-2.3-5-2.3c-1.9,0-3.6,0.8-5,2.4c-1.4,1.6-2,3.5-2,5.7
		c0,2.2,0.7,4.1,2,5.7c1.4,1.6,3,2.4,5,2.4c1.9,0,3.6-0.8,5-2.4C398.7,612.7,399.4,610.8,399.4,608.6z M400.9,608.6
		c0,2.7-0.8,5-2.5,6.9c-1.7,1.9-3.7,2.9-6,2.9c-2.4,0-4.4-1-6.1-2.9c-1.7-1.9-2.5-4.2-2.5-6.9c0-2.7,0.8-5,2.5-6.9
		c1.7-1.9,3.7-2.9,6.1-2.9c2.3,0,4.4,1,6,2.9C400.1,603.6,400.9,605.9,400.9,608.6z"/>
	<path class="st6" d="M410.3,599.4h8.3c0.4,0,0.6,0.1,0.8,0.2c0.2,0.2,0.2,0.4,0.2,0.6c0,0.3-0.1,0.5-0.2,0.6
		c-0.2,0.2-0.4,0.3-0.8,0.3h-8.3V613c0,1,0.4,1.9,1.1,2.6c0.7,0.7,1.7,1,3.1,1c1,0,2.1-0.2,3.3-0.5c1.2-0.4,2.1-0.8,2.8-1.2
		c0.2-0.2,0.4-0.3,0.6-0.3c0.2,0,0.4,0.1,0.5,0.3c0.1,0.2,0.2,0.4,0.2,0.6c0,0.2-0.1,0.4-0.2,0.6c-0.4,0.5-1.3,1-2.8,1.5
		c-1.5,0.5-2.9,0.8-4.3,0.8c-1.8,0-3.2-0.5-4.2-1.5c-1.1-1-1.6-2.3-1.6-3.9v-11.8H406c-0.4,0-0.6-0.1-0.8-0.3
		c-0.2-0.2-0.2-0.4-0.2-0.6c0-0.3,0.1-0.5,0.2-0.6c0.2-0.2,0.4-0.3,0.8-0.3h2.8v-5.3c0-0.4,0.1-0.7,0.2-0.9c0.1-0.2,0.3-0.3,0.5-0.3
		c0.2,0,0.4,0.1,0.6,0.3c0.1,0.2,0.2,0.5,0.2,0.9V599.4z"/>
	<path class="st6" d="M441.3,607.2c-0.3-2-1.1-3.6-2.4-4.8c-1.3-1.2-2.8-1.9-4.6-1.9c-1.8,0-3.3,0.6-4.6,1.8
		c-1.3,1.2-2.1,2.8-2.4,4.8H441.3z M442.9,609h-15.6c0.3,2.3,1.1,4.1,2.5,5.5c1.4,1.4,3.1,2.1,5.1,2.1c1.1,0,2.3-0.2,3.6-0.7
		c1.2-0.4,2.3-1,3-1.7c0.2-0.2,0.4-0.3,0.6-0.3c0.2,0,0.4,0.1,0.5,0.3c0.1,0.2,0.2,0.4,0.2,0.6c0,0.2-0.1,0.5-0.3,0.7
		c-0.6,0.7-1.6,1.4-3.1,2c-1.5,0.6-3,0.9-4.6,0.9c-2.6,0-4.8-1-6.5-3c-1.7-2-2.6-4.4-2.6-7.2c0-2.6,0.8-4.8,2.5-6.6
		c1.6-1.8,3.7-2.8,6.1-2.8c2.5,0,4.5,0.9,6.2,2.8C442.1,603.5,442.9,606,442.9,609z"/>
	<path class="st6" d="M450.8,599.4v2.7c1.1-1.3,2-2.1,2.9-2.6c0.9-0.5,1.8-0.7,2.9-0.7c1.2,0,2.2,0.3,3.2,0.9
		c0.7,0.4,1.3,1.1,1.8,2.1c0.6,1,0.8,2,0.8,3V616h1.3c0.4,0,0.6,0.1,0.8,0.2c0.2,0.2,0.2,0.4,0.2,0.6c0,0.3-0.1,0.5-0.2,0.6
		c-0.2,0.2-0.4,0.3-0.8,0.3h-4.1c-0.4,0-0.6-0.1-0.8-0.3c-0.2-0.2-0.2-0.4-0.2-0.6c0-0.3,0.1-0.5,0.2-0.6c0.2-0.2,0.4-0.2,0.8-0.2
		h1.3v-10.9c0-1.3-0.4-2.3-1.2-3.2c-0.8-0.9-1.8-1.3-3.2-1.3c-1,0-1.9,0.2-2.6,0.7c-0.7,0.5-1.8,1.7-3.2,3.5V616h1.7
		c0.4,0,0.6,0.1,0.8,0.2c0.2,0.2,0.2,0.4,0.2,0.6c0,0.3-0.1,0.5-0.2,0.6c-0.2,0.2-0.4,0.3-0.8,0.3h-4.9c-0.4,0-0.6-0.1-0.8-0.3
		c-0.2-0.2-0.2-0.4-0.2-0.6c0-0.3,0.1-0.5,0.2-0.6c0.2-0.2,0.4-0.2,0.8-0.2h1.7v-14.8H448c-0.4,0-0.6-0.1-0.8-0.2
		c-0.2-0.2-0.2-0.4-0.2-0.6c0-0.3,0.1-0.5,0.2-0.6c0.2-0.2,0.4-0.3,0.8-0.3H450.8z"/>
	<path class="st6" d="M483.3,601.2v-0.6c0-0.4,0.1-0.7,0.2-0.9c0.1-0.2,0.3-0.3,0.5-0.3c0.2,0,0.4,0.1,0.6,0.3
		c0.1,0.2,0.2,0.5,0.2,0.9v4c0,0.4-0.1,0.8-0.2,0.9c-0.1,0.2-0.3,0.3-0.5,0.3c-0.2,0-0.4-0.1-0.5-0.2c-0.1-0.2-0.2-0.4-0.2-0.8
		c-0.1-1-0.6-1.9-1.7-2.8c-1.1-0.9-2.5-1.4-4.3-1.4c-2.3,0-4,0.8-5.2,2.5c-1.2,1.6-1.8,3.5-1.8,5.7c0,2.3,0.6,4.2,1.9,5.7
		c1.3,1.5,3,2.2,5,2.2c1.2,0,2.4-0.3,3.6-0.8c1.2-0.5,2.3-1.3,3.3-2.5c0.2-0.3,0.5-0.4,0.7-0.4c0.2,0,0.4,0.1,0.5,0.2
		c0.1,0.2,0.2,0.4,0.2,0.6c0,0.6-0.6,1.4-1.8,2.3c-2,1.5-4.2,2.3-6.6,2.3c-2.5,0-4.5-0.9-6.1-2.7c-1.6-1.8-2.4-4.1-2.4-6.9
		c0-2.9,0.8-5.2,2.4-7.1c1.6-1.9,3.7-2.8,6.1-2.8C479.7,598.8,481.7,599.6,483.3,601.2z"/>
	<path class="st6" d="M498.8,599.4V616h6c0.4,0,0.6,0.1,0.8,0.2c0.2,0.2,0.2,0.4,0.2,0.6c0,0.3-0.1,0.5-0.2,0.6
		c-0.2,0.2-0.4,0.3-0.8,0.3h-13.5c-0.4,0-0.6-0.1-0.8-0.3c-0.2-0.2-0.2-0.4-0.2-0.6c0-0.3,0.1-0.5,0.2-0.6c0.2-0.2,0.4-0.2,0.8-0.2
		h6v-14.8h-4.4c-0.4,0-0.6-0.1-0.8-0.3c-0.2-0.2-0.2-0.4-0.2-0.6c0-0.3,0.1-0.5,0.2-0.6c0.2-0.2,0.4-0.3,0.8-0.3H498.8z
		 M498.8,590.3v4.6h-2.3v-4.6H498.8z"/>
	<path class="st6" d="M523.5,608.9c-0.7-0.2-1.5-0.4-2.3-0.5c-0.8-0.1-1.6-0.2-2.5-0.2c-2.2,0-4,0.6-5.2,1.7c-0.9,0.8-1.4,1.8-1.4,3
		c0,1.1,0.4,2,1.1,2.7c0.7,0.7,1.8,1.1,3.2,1.1c1.3,0,2.6-0.3,3.7-0.9c1.1-0.6,2.3-1.6,3.5-2.9V608.9z M523.5,617.7v-2.6
		c-2.2,2.2-4.6,3.3-7.1,3.3c-1.8,0-3.3-0.5-4.3-1.6c-1-1.1-1.6-2.4-1.6-4c0-1.7,0.7-3.2,2-4.5c1.4-1.3,3.4-1.9,6-1.9
		c0.7,0,1.5,0,2.3,0.2c0.8,0.1,1.7,0.3,2.7,0.5v-2.9c0-1-0.4-1.8-1.2-2.5c-0.8-0.7-1.9-1.1-3.5-1.1c-1.2,0-2.9,0.4-5,1.2
		c-0.4,0.1-0.6,0.2-0.8,0.2c-0.2,0-0.4-0.1-0.5-0.3c-0.1-0.2-0.2-0.4-0.2-0.6c0-0.2,0.1-0.4,0.2-0.6c0.2-0.2,0.9-0.5,2.1-0.9
		c1.9-0.6,3.3-0.9,4.3-0.9c1.9,0,3.4,0.6,4.5,1.7c1.1,1.1,1.6,2.4,1.6,3.7V616h2c0.4,0,0.6,0.1,0.8,0.2c0.2,0.2,0.2,0.4,0.2,0.6
		c0,0.3-0.1,0.5-0.2,0.6c-0.2,0.2-0.4,0.3-0.8,0.3H523.5z"/>
	<path class="st6" d="M559.4,599.4h8.3c0.4,0,0.6,0.1,0.8,0.2c0.2,0.2,0.2,0.4,0.2,0.6c0,0.3-0.1,0.5-0.2,0.6
		c-0.2,0.2-0.4,0.3-0.8,0.3h-8.3V613c0,1,0.4,1.9,1.1,2.6c0.7,0.7,1.7,1,3.1,1c1,0,2.1-0.2,3.3-0.5c1.2-0.4,2.1-0.8,2.8-1.2
		c0.2-0.2,0.4-0.3,0.6-0.3c0.2,0,0.4,0.1,0.5,0.3c0.1,0.2,0.2,0.4,0.2,0.6c0,0.2-0.1,0.4-0.2,0.6c-0.4,0.5-1.3,1-2.8,1.5
		c-1.5,0.5-2.9,0.8-4.3,0.8c-1.8,0-3.2-0.5-4.2-1.5c-1.1-1-1.6-2.3-1.6-3.9v-11.8H555c-0.4,0-0.6-0.1-0.8-0.3
		c-0.2-0.2-0.2-0.4-0.2-0.6c0-0.3,0.1-0.5,0.2-0.6c0.2-0.2,0.4-0.3,0.8-0.3h2.8v-5.3c0-0.4,0.1-0.7,0.2-0.9c0.1-0.2,0.3-0.3,0.5-0.3
		c0.2,0,0.4,0.1,0.6,0.3c0.1,0.2,0.2,0.5,0.2,0.9V599.4z"/>
	<path class="st6" d="M588.8,617.7v-2.6c-2.1,2.2-4.3,3.3-6.7,3.3c-1.5,0-2.6-0.5-3.4-1.4c-1-1.2-1.5-2.7-1.5-4.3v-11.5h-2
		c-0.4,0-0.6-0.1-0.8-0.2c-0.2-0.2-0.2-0.4-0.2-0.6c0-0.3,0.1-0.5,0.2-0.6c0.2-0.2,0.4-0.3,0.8-0.3h3.6v13.3c0,1.2,0.3,2.1,0.9,2.9
		c0.6,0.7,1.4,1.1,2.3,1.1c2.5,0,4.7-1.3,6.8-4v-11.5h-2.8c-0.4,0-0.6-0.1-0.8-0.2c-0.2-0.2-0.2-0.4-0.2-0.6c0-0.3,0.1-0.5,0.2-0.6
		c0.2-0.2,0.4-0.3,0.8-0.3h4.3V616h1.3c0.4,0,0.6,0.1,0.8,0.2c0.2,0.2,0.2,0.4,0.2,0.6c0,0.3-0.1,0.5-0.2,0.6
		c-0.2,0.2-0.4,0.3-0.8,0.3H588.8z"/>
	<path class="st6" d="M609.9,600.6c0-0.4,0.1-0.7,0.2-0.9c0.1-0.2,0.3-0.3,0.5-0.3c0.2,0,0.4,0.1,0.6,0.3c0.1,0.2,0.2,0.5,0.2,0.9v3
		c0,0.4-0.1,0.7-0.2,0.9c-0.1,0.2-0.3,0.3-0.6,0.3c-0.2,0-0.4-0.1-0.5-0.2c-0.1-0.2-0.2-0.4-0.2-0.8c-0.1-0.8-0.4-1.5-1.1-2.1
		c-1-0.8-2.3-1.2-3.9-1.2c-1.7,0-3,0.4-4,1.2c-0.7,0.6-1.1,1.3-1.1,2c0,0.8,0.4,1.6,1.3,2.1c0.6,0.4,1.7,0.7,3.3,0.9
		c2.1,0.3,3.6,0.6,4.4,0.9c1.2,0.5,2,1.2,2.6,2c0.6,0.9,0.9,1.8,0.9,2.8c0,1.5-0.6,2.8-1.9,4c-1.3,1.2-3.1,1.8-5.5,1.8
		c-2.4,0-4.4-0.7-5.9-2.1c0,0.5,0,0.8-0.1,0.9c0,0.1-0.1,0.3-0.2,0.4c-0.1,0.1-0.3,0.2-0.4,0.2c-0.2,0-0.4-0.1-0.6-0.3
		c-0.1-0.2-0.2-0.5-0.2-0.9v-3.7c0-0.4,0.1-0.7,0.2-0.9c0.1-0.2,0.3-0.3,0.6-0.3c0.2,0,0.4,0.1,0.5,0.3c0.1,0.2,0.2,0.4,0.2,0.7
		c0,0.7,0.1,1.2,0.4,1.6c0.4,0.7,1.1,1.2,2,1.7c0.9,0.4,2.1,0.7,3.4,0.7c2,0,3.5-0.4,4.4-1.3c1-0.9,1.5-1.8,1.5-2.7
		c0-1.1-0.5-2-1.5-2.6c-1-0.7-2.4-1.1-4.3-1.3c-1.9-0.2-3.3-0.5-4.1-0.9c-0.8-0.4-1.5-0.9-1.9-1.6c-0.5-0.7-0.7-1.5-0.7-2.4
		c0-1.5,0.6-2.7,1.9-3.6c1.3-0.9,2.8-1.3,4.6-1.3C606.8,598.8,608.5,599.4,609.9,600.6z"/>
	<path class="st6" d="M654.9,595.4v-1.2c0-0.4,0.1-0.7,0.2-0.9c0.1-0.2,0.3-0.3,0.6-0.3c0.2,0,0.4,0.1,0.5,0.3
		c0.1,0.2,0.2,0.5,0.2,0.9v4.9c0,0.4-0.1,0.7-0.2,0.9c-0.1,0.2-0.3,0.3-0.5,0.3c-0.2,0-0.4-0.1-0.5-0.3c-0.1-0.2-0.2-0.4-0.2-0.8
		c-0.1-1.2-0.6-2.2-1.6-3.1c-1.4-1.2-3-1.9-4.8-1.9c-1.2,0-2.3,0.3-3.3,0.9c-0.8,0.4-1.4,1-1.9,1.6c-0.8,1.1-1.4,2.3-1.9,3.7
		c-0.3,1-0.5,2.1-0.5,3.3v3.1c0,2.7,0.8,4.9,2.5,6.9c1.6,2,3.6,2.9,5.7,2.9c1.3,0,2.5-0.3,3.5-1c1-0.7,2-1.7,3-3
		c0.2-0.3,0.4-0.4,0.7-0.4c0.2,0,0.4,0.1,0.5,0.2c0.1,0.2,0.2,0.4,0.2,0.6c0,0.3-0.3,0.8-0.8,1.5c-1,1.3-2.1,2.3-3.3,2.9
		c-1.2,0.7-2.5,1-3.8,1c-1.1,0-2.2-0.2-3.4-0.7c-0.9-0.4-1.6-0.8-2.2-1.3c-0.6-0.5-1.3-1.4-2.1-2.6c-0.8-1.2-1.4-2.3-1.7-3.3
		c-0.3-1-0.5-2.1-0.5-3.4v-3.6c0-1.7,0.4-3.5,1.2-5.4c0.8-1.8,1.9-3.2,3.3-4.2c1.4-1,2.9-1.5,4.5-1.5
		C651,592.4,653.1,593.4,654.9,595.4z"/>
	<path class="st6" d="M673.8,608.9c-0.7-0.2-1.5-0.4-2.3-0.5c-0.8-0.1-1.6-0.2-2.5-0.2c-2.2,0-4,0.6-5.2,1.7c-0.9,0.8-1.4,1.8-1.4,3
		c0,1.1,0.4,2,1.1,2.7c0.7,0.7,1.8,1.1,3.2,1.1c1.3,0,2.6-0.3,3.7-0.9c1.1-0.6,2.3-1.6,3.5-2.9V608.9z M673.8,617.7v-2.6
		c-2.2,2.2-4.6,3.3-7.1,3.3c-1.8,0-3.3-0.5-4.3-1.6c-1-1.1-1.6-2.4-1.6-4c0-1.7,0.7-3.2,2-4.5c1.4-1.3,3.4-1.9,6-1.9
		c0.7,0,1.5,0,2.3,0.2c0.8,0.1,1.7,0.3,2.7,0.5v-2.9c0-1-0.4-1.8-1.2-2.5c-0.8-0.7-1.9-1.1-3.5-1.1c-1.2,0-2.9,0.4-5,1.2
		c-0.4,0.1-0.6,0.2-0.8,0.2c-0.2,0-0.4-0.1-0.5-0.3c-0.1-0.2-0.2-0.4-0.2-0.6c0-0.2,0.1-0.4,0.2-0.6c0.2-0.2,0.9-0.5,2.1-0.9
		c1.9-0.6,3.3-0.9,4.3-0.9c1.9,0,3.4,0.6,4.5,1.7c1.1,1.1,1.6,2.4,1.6,3.7V616h2c0.4,0,0.6,0.1,0.8,0.2c0.2,0.2,0.2,0.4,0.2,0.6
		c0,0.3-0.1,0.5-0.2,0.6c-0.2,0.2-0.4,0.3-0.8,0.3H673.8z"/>
	<path class="st6" d="M698,608c0-2-0.6-3.8-1.9-5.3c-1.3-1.5-2.8-2.2-4.7-2.2c-1.9,0-3.4,0.7-4.7,2.2c-1.3,1.5-1.9,3.2-1.9,5.3
		c0,2.1,0.6,3.8,1.9,5.3c1.3,1.5,2.8,2.2,4.7,2.2c1.8,0,3.4-0.7,4.7-2.2C697.3,611.9,698,610.1,698,608z M684.8,599.4v3.3
		c0.9-1.3,1.9-2.2,2.9-2.9c1-0.6,2.3-1,3.7-1c1.5,0,2.9,0.4,4.1,1.2c1.3,0.8,2.3,2,2.9,3.4c0.7,1.5,1,3,1,4.6c0,2.6-0.8,4.7-2.3,6.6
		c-1.6,1.8-3.5,2.7-5.8,2.7c-2.7,0-4.9-1.3-6.6-3.9v10.7h3.6c0.4,0,0.6,0.1,0.8,0.2c0.2,0.2,0.2,0.4,0.2,0.6c0,0.3-0.1,0.5-0.2,0.6
		c-0.2,0.2-0.4,0.3-0.8,0.3h-7.2c-0.4,0-0.6-0.1-0.8-0.2c-0.2-0.2-0.2-0.4-0.2-0.6c0-0.3,0.1-0.5,0.2-0.6c0.2-0.2,0.4-0.2,0.8-0.2h2
		v-22.9h-2c-0.4,0-0.6-0.1-0.8-0.2c-0.2-0.2-0.2-0.4-0.2-0.6c0-0.3,0.1-0.5,0.2-0.6c0.2-0.2,0.4-0.3,0.8-0.3H684.8z"/>
	<path class="st6" d="M716,608.9c-0.7-0.2-1.5-0.4-2.3-0.5c-0.8-0.1-1.6-0.2-2.5-0.2c-2.2,0-4,0.6-5.2,1.7c-0.9,0.8-1.4,1.8-1.4,3
		c0,1.1,0.4,2,1.1,2.7c0.7,0.7,1.8,1.1,3.2,1.1c1.3,0,2.6-0.3,3.7-0.9c1.1-0.6,2.3-1.6,3.5-2.9V608.9z M716,617.7v-2.6
		c-2.2,2.2-4.6,3.3-7.1,3.3c-1.8,0-3.3-0.5-4.3-1.6c-1-1.1-1.6-2.4-1.6-4c0-1.7,0.7-3.2,2-4.5c1.4-1.3,3.4-1.9,6-1.9
		c0.7,0,1.5,0,2.3,0.2c0.8,0.1,1.7,0.3,2.7,0.5v-2.9c0-1-0.4-1.8-1.2-2.5c-0.8-0.7-1.9-1.1-3.5-1.1c-1.2,0-2.9,0.4-5,1.2
		c-0.4,0.1-0.6,0.2-0.8,0.2c-0.2,0-0.4-0.1-0.5-0.3c-0.1-0.2-0.2-0.4-0.2-0.6c0-0.2,0.1-0.4,0.2-0.6c0.2-0.2,0.9-0.5,2.1-0.9
		c1.9-0.6,3.3-0.9,4.3-0.9c1.9,0,3.4,0.6,4.5,1.7c1.1,1.1,1.6,2.4,1.6,3.7V616h2c0.4,0,0.6,0.1,0.8,0.2c0.2,0.2,0.2,0.4,0.2,0.6
		c0,0.3-0.1,0.5-0.2,0.6c-0.2,0.2-0.4,0.3-0.8,0.3H716z"/>
	<path class="st6" d="M739.1,601.2v-0.6c0-0.4,0.1-0.7,0.2-0.9c0.1-0.2,0.3-0.3,0.5-0.3c0.2,0,0.4,0.1,0.6,0.3
		c0.1,0.2,0.2,0.5,0.2,0.9v4c0,0.4-0.1,0.8-0.2,0.9c-0.1,0.2-0.3,0.3-0.5,0.3c-0.2,0-0.4-0.1-0.5-0.2c-0.1-0.2-0.2-0.4-0.2-0.8
		c-0.1-1-0.6-1.9-1.7-2.8c-1.1-0.9-2.5-1.4-4.3-1.4c-2.3,0-4,0.8-5.2,2.5c-1.2,1.6-1.8,3.5-1.8,5.7c0,2.3,0.6,4.2,1.9,5.7
		c1.3,1.5,3,2.2,5,2.2c1.2,0,2.4-0.3,3.6-0.8c1.2-0.5,2.3-1.3,3.3-2.5c0.2-0.3,0.5-0.4,0.7-0.4c0.2,0,0.4,0.1,0.5,0.2
		c0.1,0.2,0.2,0.4,0.2,0.6c0,0.6-0.6,1.4-1.8,2.3c-2,1.5-4.2,2.3-6.6,2.3c-2.5,0-4.5-0.9-6.1-2.7c-1.6-1.8-2.4-4.1-2.4-6.9
		c0-2.9,0.8-5.2,2.4-7.1c1.6-1.9,3.7-2.8,6.1-2.8C735.6,598.8,737.5,599.6,739.1,601.2z"/>
	<path class="st6" d="M754.7,599.4V616h6c0.4,0,0.6,0.1,0.8,0.2c0.2,0.2,0.2,0.4,0.2,0.6c0,0.3-0.1,0.5-0.2,0.6
		c-0.2,0.2-0.4,0.3-0.8,0.3h-13.5c-0.4,0-0.6-0.1-0.8-0.3c-0.2-0.2-0.2-0.4-0.2-0.6c0-0.3,0.1-0.5,0.2-0.6c0.2-0.2,0.4-0.2,0.8-0.2
		h6v-14.8h-4.4c-0.4,0-0.6-0.1-0.8-0.3c-0.2-0.2-0.2-0.4-0.2-0.6c0-0.3,0.1-0.5,0.2-0.6c0.2-0.2,0.4-0.3,0.8-0.3H754.7z
		 M754.6,590.3v4.6h-2.3v-4.6H754.6z"/>
	<path class="st6" d="M780.9,608.6c0-2.3-0.7-4.2-2-5.7c-1.3-1.6-2.9-2.3-4.7-2.3c-1.8,0-3.4,0.8-4.7,2.3c-1.3,1.6-2,3.5-2,5.7
		c0,2.2,0.7,4.1,2,5.7c1.3,1.6,2.9,2.3,4.7,2.3c1.8,0,3.4-0.8,4.7-2.3C780.3,612.8,780.9,610.9,780.9,608.6z M782.5,591.2V616h2
		c0.4,0,0.6,0.1,0.8,0.2c0.2,0.2,0.2,0.4,0.2,0.6c0,0.3-0.1,0.5-0.2,0.6c-0.2,0.2-0.4,0.3-0.8,0.3h-3.6v-3.5c-1.8,2.8-4,4.2-6.7,4.2
		c-1.4,0-2.7-0.4-4-1.3c-1.3-0.9-2.3-2.1-3-3.6c-0.7-1.6-1.1-3.2-1.1-4.9c0-1.7,0.4-3.3,1.1-4.9c0.7-1.6,1.7-2.8,3-3.6
		c1.3-0.9,2.6-1.3,4-1.3c2.7,0,4.9,1.4,6.7,4.2v-10.1h-2c-0.4,0-0.6-0.1-0.8-0.2c-0.2-0.2-0.2-0.4-0.2-0.6c0-0.3,0.1-0.5,0.2-0.6
		c0.2-0.2,0.4-0.3,0.8-0.3H782.5z"/>
	<path class="st6" d="M800.5,608.9c-0.7-0.2-1.5-0.4-2.3-0.5c-0.8-0.1-1.6-0.2-2.5-0.2c-2.2,0-4,0.6-5.2,1.7c-0.9,0.8-1.4,1.8-1.4,3
		c0,1.1,0.4,2,1.1,2.7c0.7,0.7,1.8,1.1,3.2,1.1c1.3,0,2.6-0.3,3.7-0.9c1.1-0.6,2.3-1.6,3.5-2.9V608.9z M800.5,617.7v-2.6
		c-2.2,2.2-4.6,3.3-7.1,3.3c-1.8,0-3.3-0.5-4.3-1.6c-1-1.1-1.6-2.4-1.6-4c0-1.7,0.7-3.2,2-4.5c1.4-1.3,3.4-1.9,6-1.9
		c0.7,0,1.5,0,2.3,0.2c0.8,0.1,1.7,0.3,2.7,0.5v-2.9c0-1-0.4-1.8-1.2-2.5c-0.8-0.7-1.9-1.1-3.5-1.1c-1.2,0-2.9,0.4-5,1.2
		c-0.4,0.1-0.6,0.2-0.8,0.2c-0.2,0-0.4-0.1-0.5-0.3c-0.1-0.2-0.2-0.4-0.2-0.6c0-0.2,0.1-0.4,0.2-0.6c0.2-0.2,0.9-0.5,2.1-0.9
		c1.9-0.6,3.3-0.9,4.3-0.9c1.9,0,3.4,0.6,4.5,1.7c1.1,1.1,1.6,2.4,1.6,3.7V616h2c0.4,0,0.6,0.1,0.8,0.2c0.2,0.2,0.2,0.4,0.2,0.6
		c0,0.3-0.1,0.5-0.2,0.6c-0.2,0.2-0.4,0.3-0.8,0.3H800.5z"/>
	<path class="st6" d="M823.2,608.6c0-2.3-0.7-4.2-2-5.7c-1.3-1.6-2.9-2.3-4.7-2.3c-1.8,0-3.4,0.8-4.7,2.3c-1.3,1.6-2,3.5-2,5.7
		c0,2.2,0.6,4.1,2,5.7c1.3,1.6,2.9,2.3,4.7,2.3c1.8,0,3.4-0.8,4.7-2.3C822.5,612.8,823.2,610.9,823.2,608.6z M824.7,591.2V616h2
		c0.4,0,0.6,0.1,0.8,0.2c0.2,0.2,0.2,0.4,0.2,0.6c0,0.3-0.1,0.5-0.2,0.6c-0.2,0.2-0.4,0.3-0.8,0.3h-3.6v-3.5c-1.8,2.8-4,4.2-6.7,4.2
		c-1.4,0-2.7-0.4-4-1.3c-1.3-0.9-2.3-2.1-3-3.6c-0.7-1.6-1.1-3.2-1.1-4.9c0-1.7,0.4-3.3,1.1-4.9c0.7-1.6,1.7-2.8,3-3.6
		c1.3-0.9,2.6-1.3,4-1.3c2.7,0,4.9,1.4,6.7,4.2v-10.1h-2c-0.4,0-0.6-0.1-0.8-0.2c-0.2-0.2-0.2-0.4-0.2-0.6c0-0.3,0.1-0.5,0.2-0.6
		c0.2-0.2,0.4-0.3,0.8-0.3H824.7z"/>
	<path class="st6" d="M845.1,607.2c-0.3-2-1.1-3.6-2.4-4.8c-1.3-1.2-2.8-1.9-4.6-1.9c-1.8,0-3.3,0.6-4.6,1.8
		c-1.3,1.2-2.1,2.8-2.4,4.8H845.1z M846.6,609h-15.6c0.3,2.3,1.1,4.1,2.5,5.5c1.4,1.4,3.1,2.1,5.1,2.1c1.1,0,2.3-0.2,3.6-0.7
		c1.2-0.4,2.3-1,3-1.7c0.2-0.2,0.4-0.3,0.6-0.3c0.2,0,0.4,0.1,0.5,0.3c0.1,0.2,0.2,0.4,0.2,0.6c0,0.2-0.1,0.5-0.3,0.7
		c-0.6,0.7-1.6,1.4-3.1,2c-1.5,0.6-3,0.9-4.6,0.9c-2.6,0-4.8-1-6.5-3c-1.7-2-2.6-4.4-2.6-7.2c0-2.6,0.8-4.8,2.5-6.6
		c1.6-1.8,3.7-2.8,6.1-2.8c2.5,0,4.5,0.9,6.2,2.8C845.8,603.5,846.6,606,846.6,609z"/>
	<path class="st6" d="M864.5,600.6c0-0.4,0.1-0.7,0.2-0.9c0.1-0.2,0.3-0.3,0.5-0.3c0.2,0,0.4,0.1,0.6,0.3c0.1,0.2,0.2,0.5,0.2,0.9v3
		c0,0.4-0.1,0.7-0.2,0.9c-0.1,0.2-0.3,0.3-0.6,0.3c-0.2,0-0.4-0.1-0.5-0.2c-0.1-0.2-0.2-0.4-0.2-0.8c-0.1-0.8-0.4-1.5-1.1-2.1
		c-1-0.8-2.3-1.2-3.9-1.2c-1.7,0-3,0.4-4,1.2c-0.7,0.6-1.1,1.3-1.1,2c0,0.8,0.4,1.6,1.3,2.1c0.6,0.4,1.7,0.7,3.3,0.9
		c2.1,0.3,3.6,0.6,4.4,0.9c1.2,0.5,2,1.2,2.6,2c0.6,0.9,0.9,1.8,0.9,2.8c0,1.5-0.6,2.8-1.9,4c-1.3,1.2-3.1,1.8-5.5,1.8
		c-2.4,0-4.4-0.7-5.9-2.1c0,0.5,0,0.8-0.1,0.9c0,0.1-0.1,0.3-0.2,0.4c-0.1,0.1-0.3,0.2-0.4,0.2c-0.2,0-0.4-0.1-0.6-0.3
		c-0.1-0.2-0.2-0.5-0.2-0.9v-3.7c0-0.4,0.1-0.7,0.2-0.9c0.1-0.2,0.3-0.3,0.6-0.3c0.2,0,0.4,0.1,0.5,0.3c0.1,0.2,0.2,0.4,0.2,0.7
		c0,0.7,0.1,1.2,0.4,1.6c0.4,0.7,1.1,1.2,2,1.7c0.9,0.4,2.1,0.7,3.4,0.7c2,0,3.5-0.4,4.4-1.3c1-0.9,1.5-1.8,1.5-2.7
		c0-1.1-0.5-2-1.5-2.6c-1-0.7-2.4-1.1-4.3-1.3c-1.9-0.2-3.3-0.5-4.1-0.9c-0.8-0.4-1.5-0.9-1.9-1.6c-0.5-0.7-0.7-1.5-0.7-2.4
		c0-1.5,0.6-2.7,1.9-3.6c1.3-0.9,2.8-1.3,4.6-1.3C861.5,598.8,863.2,599.4,864.5,600.6z"/>
	<path class="st7" d="M779.5,565.3H365.3v14.8c142,0,293.3,0,435.3,0C787.6,577.1,781.2,569.1,779.5,565.3"/>
</g>
</svg>
